#!OML:ASF F:\VICON\USERDATA\INSTALL\rory3\rory3.ASF
:FULLY-SPECIFIED
:DEGREES
241
root 0.0559637 17.7919 14.6842 -7.19037 6.31957 0.818542
lowerback 17.8861 0.218001 -0.882698
upperback 0.579012 0.553514 4.43267
thorax -9.49468 0.425552 5.21066
lowerneck -10.2095 -3.61414 -4.0666
upperneck 27.1073 -3.3278 -3.36996
head 10.3667 -2.3093 -0.892455
rclavicle 1.54058e-015 6.67916e-014
rhumerus -25.5064 -19.9372 -68.0762
rradius 29.7588
rwrist 6.97744
rhand -2.47366 -3.50602
rfingers 7.12502
rthumb 23.219 -32.1263
lclavicle 1.54058e-015 6.67916e-014
lhumerus -37.3077 -1.07948 80.9943
lradius 55.6397
lwrist 10.4145
lhand -12.916 51.148
lfingers 7.12502
lthumb 13.1742 80.7118
rfemur -21.8656 -3.6012 23.459
rtibia 37.4092
rfoot -8.06691 -18.0162
rtoes 26.3907
lfemur 3.71553 -4.95657 -22.1248
ltibia 54.0603
lfoot 27.9674 -5.17192
ltoes -0.950457
242
root 0.0342343 17.8154 14.902 -7.52238 6.28661 -0.176146
lowerback 18.2624 0.181773 0.0747297
upperback 0.469299 0.745427 4.70658
thorax -9.83964 0.487874 4.92263
lowerneck -10.0551 -3.66446 -4.06686
upperneck 27.057 -3.42561 -3.30831
head 10.3191 -2.34547 -0.877438
rclavicle -2.5842e-015 -3.65764e-014
rhumerus -26.4708 -23.3936 -66.5888
rradius 27.8011
rwrist 3.36733
rhand -2.53792 -3.92144
rfingers 7.12502
rthumb 23.1574 -32.5495
lclavicle -2.5842e-015 -3.65764e-014
lhumerus -38.1322 -1.09729 80.9472
lradius 55.7503
lwrist 10.2867
lhand -12.8347 52.6405
lfingers 7.12502
lthumb 13.2526 82.1992
rfemur -20.6944 -3.72098 24.6811
rtibia 37.2888
rfoot -8.82287 -18.0279
rtoes 25.8727
lfemur 2.3844 -4.86574 -20.8054
ltibia 56.2275
lfoot 29.6361 -5.31325
ltoes -1.6851
243
root 0.0147979 17.8439 15.1162 -7.58082 6.20297 -0.853334
lowerback 18.0549 0.204656 0.697104
upperback 0.539465 0.91658 4.90491
thorax -9.65485 0.542795 4.73199
lowerneck -10.1576 -3.70489 -4.04063
upperneck 26.9293 -3.51162 -3.2097
head 10.293 -2.3694 -0.856752
rclavicle -5.11871e-015 3.65764e-014
rhumerus -27.4257 -26.9324 -64.9888
rradius 26.1839
rwrist 0.58255
rhand -3.01502 -4.22653
rfingers 7.12502
rthumb 22.6995 -32.9114
lclavicle -5.11871e-015 3.65764e-014
lhumerus -38.5104 -1.01483 80.8779
lradius 55.7331
lwrist 10.2576
lhand -11.8249 50.525
lfingers 7.12502
lthumb 14.2257 80.0178
rfemur -19.7711 -3.79449 25.5735
rtibia 37.0568
rfoot -9.25488 -18.0803
rtoes 24.7282
lfemur 0.773545 -4.7769 -19.9166
ltibia 58.2999
lfoot 30.3437 -5.71532
ltoes -3.4235
244
root 0.00290905 17.8743 15.3323 -7.57039 6.33628 -1.09213
lowerback 17.7848 0.219163 0.957265
upperback 0.593171 0.981703 4.95504
thorax -9.44572 0.560686 4.61381
lowerneck -10.0426 -3.77322 -4.12883
upperneck 26.6012 -3.6697 -2.96061
head 10.1579 -2.41743 -0.763229
rclavicle -6.11263e-015 2.06736e-014
rhumerus -28.7955 -30.5966 -63.0373
rradius 24.6889
rwrist -1.33041
rhand -3.80629 -3.41135
rfingers 7.12502
rthumb 21.94 -32.1872
lclavicle -6.11263e-015 2.06736e-014
lhumerus -38.8672 -0.752052 80.7638
lradius 55.5339
lwrist 10.2258
lhand -11.2565 49.7383
lfingers 7.12502
lthumb 14.7734 79.1918
rfemur -18.8673 -4.04579 25.8878
rtibia 36.8151
rfoot -9.79468 -17.954
rtoes 23.5927
lfemur -0.766236 -4.88968 -19.6535
ltibia 60.2214
lfoot 29.748 -5.75493
ltoes -2.49661
245
root -0.00605717 17.8991 15.5598 -7.6909 6.55224 -0.681931
lowerback 17.7191 0.309471 0.586264
upperback 0.636642 1.01175 4.8557
thorax -9.3669 0.587932 4.70748
lowerneck -9.94636 -3.82704 -4.26285
upperneck 26.3467 -3.78849 -2.73109
head 10.0554 -2.45543 -0.666762
rclavicle 1.59028e-015 -2.06736e-014
rhumerus -30.6768 -34.1496 -60.6207
rradius 23.4453
rwrist -2.28036
rhand -4.45838 -1.79811
rfingers 7.12502
rthumb 21.3137 -30.6461
lclavicle 1.59028e-015 -2.06736e-014
lhumerus -39.4873 -0.369886 80.6842
lradius 55.3483
lwrist 10.1409
lhand -11.3015 48.8934
lfingers 7.12502
lthumb 14.73 78.3501
rfemur -17.7064 -4.25659 25.4262
rtibia 36.5537
rfoot -10.6783 -17.6389
rtoes 21.9583
lfemur -1.83282 -5.0289 -20.2249
ltibia 61.8898
lfoot 27.6406 -5.6037
ltoes -1.74108
246
root -0.0360547 17.9132 15.741 -7.79924 6.11967 -1.68729
lowerback 18.1288 0.489991 1.4142
upperback 0.553512 1.47994 5.22259
thorax -9.71839 0.78834 4.52384
lowerneck -9.91086 -3.8776 -4.40621
upperneck 26.1433 -3.85846 -2.63936
head 9.98166 -2.48793 -0.614074
rclavicle 2.26366e-014 0
rhumerus -32.8229 -37.7946 -57.7572
rradius 22.5038
rwrist -2.05266
rhand -5.16946 -1.07214
rfingers 7.12502
rthumb 20.6306 -29.9957
lclavicle 2.26366e-014 0
lhumerus -39.9504 0.12886 80.629
lradius 54.9152
lwrist 9.83873
lhand -11.5586 47.3257
lfingers 7.12502
lthumb 14.4823 76.8002
rfemur -16.8858 -3.35306 26.7994
rtibia 36.1419
rfoot -11.3454 -18.1944
rtoes 21.7432
lfemur -3.60758 -4.59902 -18.7851
ltibia 63.8142
lfoot 25.3416 -5.64085
ltoes -1.97526
247
root -0.0563964 17.9366 15.9509 -8.02819 6.02675 -2.19022
lowerback 18.1133 0.498994 1.78734
upperback 0.741858 1.56948 5.33828
thorax -9.50161 0.814463 4.40865
lowerneck -10.0155 -3.90368 -4.23776
upperneck 25.8616 -3.93889 -2.60418
head 9.89564 -2.50186 -0.636302
rclavicle -3.62782e-015 2.54444e-014
rhumerus -34.5828 -41.1672 -55.4714
rradius 21.6887
rwrist -2.08029
rhand -7.09212 -1.76937
rfingers 7.12502
rthumb 18.7822 -30.8826
lclavicle -3.62782e-015 2.54444e-014
lhumerus -40.3086 0.656832 80.2847
lradius 54.5411
lwrist 10.0227
lhand -11.547 47.4625
lfingers 7.12502
lthumb 14.4935 76.9363
rfemur -15.7392 -3.22278 27.515
rtibia 35.8934
rfoot -11.8977 -18.4203
rtoes 20.7927
lfemur -4.9104 -4.4421 -18.1056
ltibia 65.2915
lfoot 22.7219 -5.60459
ltoes -3.04945
248
root -0.0749647 17.9501 16.1456 -8.05453 5.96562 -2.76842
lowerback 18.7493 0.485746 2.39065
upperback 0.341062 1.74872 5.41827
thorax -10.3034 0.878492 4.12112
lowerneck -9.76709 -3.92417 -4.20607
upperneck 25.8916 -4.00512 -2.53875
head 9.85934 -2.52206 -0.62096
rclavicle 8.54774e-015 3.02153e-014
rhumerus -36.822 -40.0871 -54.9489
rradius 23.0468
rwrist -6.36145
rhand -9.42217 -2.9227
rfingers 7.12502
rthumb 16.54 -32.2378
lclavicle 8.54774e-015 3.02153e-014
lhumerus -41.5738 1.03329 79.971
lradius 54.2806
lwrist 10.4646
lhand -11.5773 48.3533
lfingers 7.12502
lthumb 14.4643 77.8292
rfemur -14.8003 -3.23132 28.3441
rtibia 35.5655
rfoot -11.9816 -18.6457
rtoes 18.6036
lfemur -6.40832 -4.26935 -17.3491
ltibia 66.6628
lfoot 19.8608 -6.0182
ltoes -5.54181
249
root -0.0736552 17.9802 16.3851 -8.03408 6.35747 -1.6008
lowerback 17.6874 0.534631 1.29701
upperback 0.929653 1.4647 5.12636
thorax -9.05345 0.776052 4.47345
lowerneck -10.2132 -3.92119 -4.20283
upperneck 25.4595 -3.98929 -2.51547
head 9.78983 -2.50774 -0.614271
rclavicle 5.2181e-015 -6.36111e-015
rhumerus -37.6256 -40.6613 -54.6226
rradius 23.7464
rwrist -8.45014
rhand -11.1663 -2.88386
rfingers 7.12502
rthumb 14.8603 -32.3309
lclavicle 5.2181e-015 -6.36111e-015
lhumerus -41.5352 1.98727 79.7154
lradius 53.8387
lwrist 10.6525
lhand -11.7803 48.3998
lfingers 7.12502
lthumb 14.2687 77.8896
rfemur -13.715 -3.98269 26.9866
rtibia 35.4136
rfoot -12.1261 -18.4106
rtoes 15.39
lfemur -7.07687 -4.53269 -18.9791
ltibia 67.3065
lfoot 17.0749 -5.63938
ltoes -8.16202
250
root -0.0866463 18.0018 16.5814 -7.93558 6.27514 -1.96927
lowerback 18.3151 0.57938 1.76611
upperback 0.468759 1.67509 5.11425
thorax -9.91723 0.862952 4.15332
lowerneck -9.89374 -3.95504 -4.08297
upperneck 25.3386 -4.08213 -2.51361
head 9.68219 -2.53732 -0.634163
rclavicle -4.22417e-016 -2.22639e-014
rhumerus -40.235 -41.5228 -52.6954
rradius 24.0135
rwrist -9.36579
rhand -12.7419 -2.50573
rfingers 7.12502
rthumb 13.342 -32.0586
lclavicle -4.22417e-016 -2.22639e-014
lhumerus -42.9445 2.27402 79.273
lradius 53.5832
lwrist 10.8121
lhand -11.9891 48.0641
lfingers 7.12502
lthumb 14.0675 77.5679
rfemur -13.0724 -3.97751 27.5266
rtibia 35.1814
rfoot -12.3523 -18.7636
rtoes 14.8762
lfemur -8.4896 -4.43313 -18.5005
ltibia 68.0487
lfoot 14.8843 -5.60073
ltoes -10.5946
251
root -0.0993725 18.0159 16.7774 -7.9273 6.0902 -2.31055
lowerback 18.188 0.564672 2.02644
upperback 0.56724 1.70772 5.21201
thorax -9.73463 0.867674 4.0999
lowerneck -9.64012 -3.8813 -4.22484
upperneck 24.8191 -4.02246 -2.31476
head 9.45705 -2.49494 -0.519912
rclavicle -5.34234e-015 1.74931e-014
rhumerus -41.5945 -42.8174 -51.4227
rradius 24.1069
rwrist -9.86151
rhand -14.429 -2.14415
rfingers 7.12502
rthumb 11.7154 -31.7966
lclavicle -5.34234e-015 1.74931e-014
lhumerus -43.7011 3.20514 78.7693
lradius 53.2197
lwrist 10.9608
lhand -12.4812 48.2885
lfingers 7.12502
lthumb 13.5933 77.8247
rfemur -12.1702 -3.74131 28.0587
rtibia 34.9498
rfoot -12.7884 -19.0681
rtoes 16.164
lfemur -9.79484 -4.2167 -18.0383
ltibia 68.5678
lfoot 12.7483 -5.60467
ltoes -13.7498
